<svg version="1.1" id="Слой_1" xmlns="http://www.w3.org/2000/svg" xmlns:xlink="http://www.w3.org/1999/xlink" x="0" y="0" viewBox="0 0 500 100" xml:space="preserve"><style>.st2{clip-path:url(#SVGID_6_)}.st40{clip-path:url(#SVGID_82_)}</style><defs><path id="SVGID_1_" d="M230.7 13.6c13.9 0 25.2 4.1 25.2 17.3 0 13.4-11.4 17.5-25.2 17.5-13.8 0-25.1-4.1-25.1-17.5 0-13.1 11.3-17.3 25.1-17.3m-.2 26c6.3 0 8.7-3.1 8.7-8.4 0-5.1-2.4-8.3-8.7-8.3-5.7 0-8.7 3.2-8.7 8.3-.1 5.3 3 8.4 8.7 8.4"/></defs><clipPath id="SVGID_2_"><use xlink:href="#SVGID_1_" overflow="visible"/></clipPath><path clip-path="url(#SVGID_2_)" fill="#272425" d="M201.9 9.9h57.7v42.2h-57.7z"/><defs><path id="SVGID_3_" d="M0 1h500v48.1H0z"/></defs><clipPath id="SVGID_4_"><use xlink:href="#SVGID_3_" overflow="visible"/></clipPath><g clip-path="url(#SVGID_4_)"><defs><path id="SVGID_5_" d="M0 1h500v49.6H0z"/></defs><clipPath id="SVGID_6_"><use xlink:href="#SVGID_5_" overflow="visible"/></clipPath><g class="st2"><defs><path id="SVGID_7_" d="M261.8 3.2h14.8v44.4h-14.8z"/></defs><clipPath id="SVGID_8_"><use xlink:href="#SVGID_7_" overflow="visible"/></clipPath><g clip-path="url(#SVGID_8_)"><defs><path id="SVGID_9_" d="M0 1h500v48.1H0z"/></defs><clipPath id="SVGID_10_"><use xlink:href="#SVGID_9_" overflow="visible"/></clipPath><path clip-path="url(#SVGID_10_)" fill="#272425" d="M258.1-.5h22.2v51.8h-22.2z"/></g></g><g class="st2"><defs><path id="SVGID_11_" d="M307.3 13.6c14.1 0 25.5 4.1 25.5 17.3 0 13.4-11.5 17.5-25.5 17.5s-25.5-4.1-25.5-17.5c0-13.1 11.5-17.3 25.5-17.3m.1 26c6.3 0 8.7-3.1 8.7-8.4 0-5.1-2.4-8.3-8.7-8.3-5.7 0-8.8 3.2-8.8 8.3 0 5.3 3.1 8.4 8.8 8.4"/></defs><clipPath id="SVGID_12_"><use xlink:href="#SVGID_11_" overflow="visible"/></clipPath><g clip-path="url(#SVGID_12_)"><defs><path id="SVGID_13_" d="M0 1h500v48.1H0z"/></defs><clipPath id="SVGID_14_"><use xlink:href="#SVGID_13_" overflow="visible"/></clipPath><path clip-path="url(#SVGID_14_)" fill="#272425" d="M278.1 9.9h58.4v42.2h-58.4z"/></g></g><g class="st2"><defs><path id="SVGID_15_" d="M369.5 47.9v-4.1c-2.8 3.1-6.8 4.5-10.5 5.1-4.3.6-15 .1-20.4-6.5-4-4.9-4-12.8-2.7-17.3 1.6-5.5 5.6-9.2 11.3-10.8 6.7-2 16.1-1.3 22.3 3.8V3.2h15.2v44.7h-15.2zm-8.9-25.1c-5 .1-8.9 3.1-8.8 8 .1 5 4.3 7.6 9.3 7.5 5-.1 8.9-2.9 8.8-7.9-.1-5-4.4-7.7-9.3-7.6z"/></defs><clipPath id="SVGID_16_"><use xlink:href="#SVGID_15_" overflow="visible"/></clipPath><g clip-path="url(#SVGID_16_)"><defs><path id="SVGID_17_" d="M0 1h500v48.1H0z"/></defs><clipPath id="SVGID_18_"><use xlink:href="#SVGID_17_" overflow="visible"/></clipPath><path clip-path="url(#SVGID_18_)" fill="#272425" d="M331.4-.5h57v53.3h-57z"/></g></g><g class="st2"><defs><path id="SVGID_19_" d="M401.4 1c4.7 0 8.4 1.4 8.4 5.4 0 3.7-4.2 5.3-8.6 5.3-4.6 0-8.4-1.5-8.4-5.4 0-3.8 3.9-5.3 8.6-5.3zm-8 46.6h15.7V14.3h-15.7v33.3z"/></defs><clipPath id="SVGID_20_"><use xlink:href="#SVGID_19_" overflow="visible"/></clipPath><g clip-path="url(#SVGID_20_)"><defs><path id="SVGID_21_" d="M0 1h500v48.1H0z"/></defs><clipPath id="SVGID_22_"><use xlink:href="#SVGID_21_" overflow="visible"/></clipPath><path clip-path="url(#SVGID_22_)" fill="#272425" d="M389.1-2.7h24.4v54h-24.4z"/></g></g><g class="st2"><defs><path id="SVGID_23_" d="M446.9 24.5c-.5-.6-1-1.2-2-1.7-.9-.5-1.8-.8-2.6-1-1-.3-7.1-.8-8.5.8-.5.5-.7 1.3-.3 2.1.9 1.7 4.6 2 6.9 2.2l7.7.8c3 .3 11 1 13.3 5.5 1.1 2.1 1.3 5.4-.2 8-3.4 5.8-11.6 7.1-16.7 7.1h-7.2c-4.9 0-16.2-1.4-20.9-8.1-.3-.5-1-1.5-1.4-2.7h16.3c.5.5 1.5 1.2 2.3 1.7.6.3 1.5.7 2.6.8 1.1.3 7 .8 8.6-1.2.5-.6.7-1.4.3-2.1-.9-2-3.1-1.9-6.2-2.1l-8.4-.8c-3.3-.4-11-1.1-13.3-6-.9-2-.8-5.9.9-8.4 3.7-5.4 14.2-5.9 18.3-5.9h3.5c4.4 0 17.5 1 21.4 10.7l-14.4.3z"/></defs><clipPath id="SVGID_24_"><use xlink:href="#SVGID_23_" overflow="visible"/></clipPath><g clip-path="url(#SVGID_24_)"><defs><path id="SVGID_25_" d="M0 1h500v48.1H0z"/></defs><clipPath id="SVGID_26_"><use xlink:href="#SVGID_25_" overflow="visible"/></clipPath><path clip-path="url(#SVGID_26_)" fill="#272425" d="M411.2 9.9h54.7v42.2h-54.7z"/></g></g><g class="st2"><defs><path id="SVGID_27_" d="M487.7 14.5h10.9v9h-10.9V31c0 3.8-.2 5.8 1.5 7.2 2.5 1.9 8.4.6 10.8.2v8.5c-.3.2-4.2 1.1-4.2 1.1-5 .9-14.5 2.5-19.5-1.5-4-3.3-3.7-8.6-3.7-12v-11H466v-9h6.6V6l15.2-.6v9.1z"/></defs><clipPath id="SVGID_28_"><use xlink:href="#SVGID_27_" overflow="visible"/></clipPath><g clip-path="url(#SVGID_28_)"><defs><path id="SVGID_29_" d="M0 1h500v48.1H0z"/></defs><clipPath id="SVGID_30_"><use xlink:href="#SVGID_29_" overflow="visible"/></clipPath><path clip-path="url(#SVGID_30_)" fill="#272425" d="M462.3 1.7h41.4v51h-41.4z"/></g></g><g class="st2"><defs><path id="SVGID_31_" d="M192.6 15.6c5.8 2.9 6.3 9.4 6.3 13.5v18.4h-15.1v-14c0-3.6.5-7.2-3-9.2-2.2-1.3-5.2-1.1-7.5.2-3.6 2-3 5.1-3 8.8v14.3h-15.1V34.4c0-4 .5-8.3-3.1-10.3-2-1.1-4.8-1-7.1.2-3.8 2.1-3.3 5.8-3.3 9.3v14h-15.1V14.7h4.2l9.7 4c5.6-5.3 13.6-5.6 18.7-4.8 4.9.8 5.9 1.7 9.5 4.4 6.3-5.3 17.3-5.9 23.9-2.7"/></defs><clipPath id="SVGID_32_"><use xlink:href="#SVGID_31_" overflow="visible"/></clipPath><g clip-path="url(#SVGID_32_)"><defs><path id="SVGID_33_" d="M0 1h500v48.1H0z"/></defs><clipPath id="SVGID_34_"><use xlink:href="#SVGID_33_" overflow="visible"/></clipPath><path clip-path="url(#SVGID_34_)" fill="#272425" d="M122.8 9.9h79.9v41.4h-79.9z"/></g></g><g class="st2"><defs><path id="SVGID_35_" d="M164.5 15.6c5.8 2.9 6.3 9.4 6.3 13.5v18.4h-15.1v-14c0-3.6.5-7.2-3-9.2-2.2-1.3-5.2-1.1-7.5.2-3.6 2-3 5.1-3 8.8v14.3H127V34.4c0-4 .5-8.3-3.1-10.3-2-1.1-4.8-1-7.1.2-3.8 2.1-3.3 5.7-3.3 9.3v14H98.4V14.7h5.6l8.4 4c5.6-5.3 13.4-5.6 18.5-4.8 4.9.8 5.9 1.7 9.5 4.4 6.5-5.3 17.5-5.9 24.1-2.7"/></defs><clipPath id="SVGID_36_"><use xlink:href="#SVGID_35_" overflow="visible"/></clipPath><g clip-path="url(#SVGID_36_)"><defs><path id="SVGID_37_" d="M0 1h500v48.1H0z"/></defs><clipPath id="SVGID_38_"><use xlink:href="#SVGID_37_" overflow="visible"/></clipPath><path clip-path="url(#SVGID_38_)" fill="#272425" d="M94.7 9.9h79.9v41.4H94.7z"/></g></g><g class="st2"><defs><path id="SVGID_39_" d="M135.7 15.6c5.8 2.9 6.3 9.4 6.3 13.5v18.5h-15.1V33.5c0-3.6.5-7.2-3-9.2-2.2-1.3-5.2-1.1-7.5.2-3.6 2.1-3 5.1-3 8.8v14.4H98.2V34.4c0-4 .5-8.3-3.1-10.3-2-1.1-4.8-1-7.1.2-3.8 2.1-3.3 5.8-3.3 9.3v14H69.5V14.7h5.3l9.5 4.2c5.6-5.3 12.6-5.8 17.7-5 4.9.8 5.9 1.7 9.5 4.4 6.6-5.3 17.5-6 24.2-2.7"/></defs><clipPath id="SVGID_40_"><use xlink:href="#SVGID_39_" overflow="visible"/></clipPath><g clip-path="url(#SVGID_40_)"><defs><path id="SVGID_41_" d="M0 1h500v48.1H0z"/></defs><clipPath id="SVGID_42_"><use xlink:href="#SVGID_41_" overflow="visible"/></clipPath><path clip-path="url(#SVGID_42_)" fill="#272425" d="M65.8 9.9h79.9v41.4H65.8z"/></g></g><g class="st2"><defs><path id="SVGID_43_" d="M107.6 15.6c5.8 2.9 6.3 9.4 6.3 13.5v18.4H98.8v-14c0-3.6.5-7.2-3-9.2-2.2-1.3-5.2-1.1-7.5.2-3.6 2-3 5.1-3 8.8v14.3H70.1V34.4c0-4 .5-8.3-3.1-10.3-2-1.1-4.8-1-7.1.2-3.8 2.1-3.3 5.8-3.3 9.3v14H41.4V14.7h5.8l8.4 4c5.6-5.3 12.6-5.6 17.7-4.8 4.9.8 6.5 1.7 10.1 4.4 6.6-5.3 17.5-5.9 24.2-2.7"/></defs><clipPath id="SVGID_44_"><use xlink:href="#SVGID_43_" overflow="visible"/></clipPath><g clip-path="url(#SVGID_44_)"><defs><path id="SVGID_45_" d="M0 1h500v48.1H0z"/></defs><clipPath id="SVGID_46_"><use xlink:href="#SVGID_45_" overflow="visible"/></clipPath><path clip-path="url(#SVGID_46_)" fill="#272425" d="M37.7 9.9h79.9v41.4H37.7z"/></g></g><g class="st2"><defs><path id="SVGID_47_" d="M78.7 15.6C84.5 18.5 85 25 85 29.1v18.4H69.9v-14c0-3.6.5-7.2-3-9.2-2.2-1.3-5.2-1.1-7.5.2-3.6 2-3 5.1-3 8.8v14.3H41.2V34.4c0-4 .5-8.3-3.1-10.3-2-1.1-4.8-1-7.1.2-3.8 2.1-3.3 5.8-3.3 9.3v14H12.6V14.7h5.3l8.8 4.1c5.6-5.3 13.4-5.7 18.4-4.9 4.9.8 5.9 1.7 9.5 4.4 6.5-5.3 17.5-5.9 24.1-2.7"/></defs><clipPath id="SVGID_48_"><use xlink:href="#SVGID_47_" overflow="visible"/></clipPath><g clip-path="url(#SVGID_48_)"><defs><path id="SVGID_49_" d="M0 1h500v48.1H0z"/></defs><clipPath id="SVGID_50_"><use xlink:href="#SVGID_49_" overflow="visible"/></clipPath><path clip-path="url(#SVGID_50_)" fill="#272425" d="M8.9 9.9h79.9v41.4H8.9z"/></g></g><g class="st2"><defs><path id="SVGID_51_" d="M49.9 15.6c-6.7-3.2-17.6-2.6-24.1 2.7-3.6-2.7-4.6-3.6-9.5-4.4-4.8-.7-11-.5-16.3 3.9v8.5c.5-.8 1.2-1.5 2.3-2.1 2.2-1.2 5.1-1.3 7.1-.2 3.6 2 3.1 6.3 3.1 10.3v13.2h15.1V33.3c0-3.6-.5-6.7 3-8.8 2.3-1.3 5.3-1.4 7.5-.2 3.4 2 3 5.6 3 9.2v14.1h15.1V29.1c0-4.1-.6-10.6-6.3-13.5"/></defs><clipPath id="SVGID_52_"><use xlink:href="#SVGID_51_" overflow="visible"/></clipPath><g clip-path="url(#SVGID_52_)"><defs><path id="SVGID_53_" d="M0 1h500v48.1H0z"/></defs><clipPath id="SVGID_54_"><use xlink:href="#SVGID_53_" overflow="visible"/></clipPath><path clip-path="url(#SVGID_54_)" fill="#272425" d="M-3.7 9.9h63.6v41.4H-3.7z"/></g></g></g><defs><path id="SVGID_55_" d="M22.4 61.7l-4.8 4.6v-4.6h-5V75h5v-3.5l2.1-1.9L23 75h5.8l-5.5-8.5 5.4-4.8z"/></defs><clipPath id="SVGID_56_"><use xlink:href="#SVGID_55_" overflow="visible"/></clipPath><path clip-path="url(#SVGID_56_)" fill="#272425" d="M8.9 58h23.7v20.7H8.9z"/><defs><path id="SVGID_57_" d="M35.5 61.7l2.9 5 3-5h5.2l-5.8 9.6V75l-4.9-.1v-3.6l-5.6-9.6z"/></defs><clipPath id="SVGID_58_"><use xlink:href="#SVGID_57_" overflow="visible"/></clipPath><path clip-path="url(#SVGID_58_)" fill="#272425" d="M26.6 58h23.7v20.7H26.6z"/><defs><path id="SVGID_59_" d="M48.1 61.7h5.2V75h-5.2z"/></defs><clipPath id="SVGID_60_"><use xlink:href="#SVGID_59_" overflow="visible"/></clipPath><path clip-path="url(#SVGID_60_)" fill="#272425" d="M44.4 58H57v20.7H44.4z"/><defs><path id="SVGID_61_" d="M60.1 75l-5.4-13.3h4.7l3.5 8.5 3.4-8.5H71L65.6 75z"/></defs><clipPath id="SVGID_62_"><use xlink:href="#SVGID_61_" overflow="visible"/></clipPath><path clip-path="url(#SVGID_62_)" fill="#272425" d="M51 58h23.7v20.7H51z"/><defs><path id="SVGID_63_" d="M79.1 61.7h5.2V75h-5.2z"/></defs><clipPath id="SVGID_64_"><use xlink:href="#SVGID_63_" overflow="visible"/></clipPath><path clip-path="url(#SVGID_64_)" fill="#272425" d="M75.4 58H88v20.7H75.4z"/><defs><path id="SVGID_65_" d="M98 68.6v-6.9h4.8V75H97l-5.6-7.5V75h-4.9V61.7h6.2z"/></defs><clipPath id="SVGID_66_"><use xlink:href="#SVGID_65_" overflow="visible"/></clipPath><path clip-path="url(#SVGID_66_)" fill="#272425" d="M82.8 58h23.7v20.7H82.8z"/><defs><path id="SVGID_67_" d="M118.3 65.5h-4.7V75h-5.3v-9.5h-4.7v-3.8h14.7z"/></defs><clipPath id="SVGID_68_"><use xlink:href="#SVGID_67_" overflow="visible"/></clipPath><path clip-path="url(#SVGID_68_)" fill="#272425" d="M99.9 58h22.2v20.7H99.9z"/><defs><path id="SVGID_69_" d="M133.3 61.7v3.1h-8.8v1.6h8.1v3.2h-8.1v2.1h9.4V75h-14.8V61.7z"/></defs><clipPath id="SVGID_70_"><use xlink:href="#SVGID_69_" overflow="visible"/></clipPath><path clip-path="url(#SVGID_70_)" fill="#272425" d="M115.4 58h22.2v20.7h-22.2z"/><defs><path id="SVGID_71_" d="M150.8 63.5c.8 1.2.6 2.7.3 3.7-.5 1.3-1.6 2-2.8 2.3l3.4 5.1h-5.8l-2.7-4.7h-2.9v4.7h-5.2V61.7H147c1.9 0 3.1.7 3.8 1.8zm-7.4 3.8c1 0 2 .1 2.5-.6.3-.5.3-.9.1-1.3-.4-.7-1.4-.7-2.3-.7h-3.3v2.6h3z"/></defs><clipPath id="SVGID_72_"><use xlink:href="#SVGID_71_" overflow="visible"/></clipPath><path clip-path="url(#SVGID_72_)" fill="#272425" d="M131.4 58h24v20.5h-24z"/><defs><path id="SVGID_73_" d="M164.7 68.6v-6.9h4.8v13.1h-5.7l-5.6-7.4v7.4h-4.8V61.7h6.1z"/></defs><clipPath id="SVGID_74_"><use xlink:href="#SVGID_73_" overflow="visible"/></clipPath><path clip-path="url(#SVGID_74_)" fill="#272425" d="M149.7 58h23.5v20.5h-23.5z"/><defs><path id="SVGID_75_" d="M183.3 61.7l5.3 13.1h-4.9l-1-2.4h-6.3l-1 2.4h-4.9l5.3-13.1h7.5zm-1.7 7.8l-2-4.9-2 4.9h4z"/></defs><clipPath id="SVGID_76_"><use xlink:href="#SVGID_75_" overflow="visible"/></clipPath><path clip-path="url(#SVGID_76_)" fill="#272425" d="M166.9 58h25.4v20.5h-25.4z"/><defs><path id="SVGID_77_" d="M201.4 65.5h-4.6v9.3h-5.2v-9.3h-4.7v-3.8h14.5z"/></defs><clipPath id="SVGID_78_"><use xlink:href="#SVGID_77_" overflow="visible"/></clipPath><path clip-path="url(#SVGID_78_)" fill="#272425" d="M183.2 58h21.9v20.5h-21.9z"/><defs><path id="SVGID_79_" d="M12.6 61.3h263.8v34.3H12.6z"/></defs><clipPath id="SVGID_80_"><use xlink:href="#SVGID_79_" overflow="visible"/></clipPath><g clip-path="url(#SVGID_80_)"><defs><path id="SVGID_81_" d="M12.6 60.9h264.1v34.8H12.6z"/></defs><clipPath id="SVGID_82_"><use xlink:href="#SVGID_81_" overflow="visible"/></clipPath><g class="st40"><defs><path id="SVGID_83_" d="M202.7 61.7h5.2v13.1h-5.2z"/></defs><clipPath id="SVGID_84_"><use xlink:href="#SVGID_83_" overflow="visible"/></clipPath><g clip-path="url(#SVGID_84_)"><defs><path id="SVGID_85_" d="M11.8 60.9h264.8v34.8H11.8z"/></defs><clipPath id="SVGID_86_"><use xlink:href="#SVGID_85_" overflow="visible"/></clipPath><path clip-path="url(#SVGID_86_)" fill="#272425" d="M199 58h12.6v20.5H199z"/></g></g><g class="st40"><defs><path id="SVGID_87_" d="M217.7 61.3c4.7 0 8.6 2.2 8.6 6.9s-3.9 6.9-8.6 6.9c-4.8 0-8.6-2.2-8.6-6.9s3.9-6.9 8.6-6.9m0 10.5c2.4 0 3.6-1.2 3.6-3.6 0-2.4-1.2-3.6-3.6-3.6-2.4 0-3.6 1.3-3.6 3.6.1 2.5 1.3 3.6 3.6 3.6"/></defs><clipPath id="SVGID_88_"><use xlink:href="#SVGID_87_" overflow="visible"/></clipPath><g clip-path="url(#SVGID_88_)"><defs><path id="SVGID_89_" d="M11.8 60.9h264.8v34.8H11.8z"/></defs><clipPath id="SVGID_90_"><use xlink:href="#SVGID_89_" overflow="visible"/></clipPath><path clip-path="url(#SVGID_90_)" fill="#272425" d="M205.4 57.6H230v21.2h-24.6z"/></g></g><g class="st40"><defs><path id="SVGID_91_" d="M238.9 68.6v-6.9h4.8v13.1H238l-5.6-7.4v7.4h-4.8V61.7h6.1z"/></defs><clipPath id="SVGID_92_"><use xlink:href="#SVGID_91_" overflow="visible"/></clipPath><g clip-path="url(#SVGID_92_)"><defs><path id="SVGID_93_" d="M11.8 60.9h264.8v34.8H11.8z"/></defs><clipPath id="SVGID_94_"><use xlink:href="#SVGID_93_" overflow="visible"/></clipPath><path clip-path="url(#SVGID_94_)" fill="#272425" d="M223.9 58h23.5v20.5h-23.5z"/></g></g><g class="st40"><defs><path id="SVGID_95_" d="M257.5 61.7l5.3 13.1h-4.9l-1-2.4h-6.3l-1 2.4h-4.9l5.3-13.1h7.5zm-1.7 7.8l-2-4.9-2 4.9h4z"/></defs><clipPath id="SVGID_96_"><use xlink:href="#SVGID_95_" overflow="visible"/></clipPath><g clip-path="url(#SVGID_96_)"><defs><path id="SVGID_97_" d="M11.8 60.9h264.8v34.8H11.8z"/></defs><clipPath id="SVGID_98_"><use xlink:href="#SVGID_97_" overflow="visible"/></clipPath><path clip-path="url(#SVGID_98_)" fill="#272425" d="M241.1 58h25.4v20.5h-25.4z"/></g></g><g class="st40"><defs><path id="SVGID_99_" d="M268.9 61.7v9.6h7.5v3.5h-12.7V61.7z"/></defs><clipPath id="SVGID_100_"><use xlink:href="#SVGID_99_" overflow="visible"/></clipPath><g clip-path="url(#SVGID_100_)"><defs><path id="SVGID_101_" d="M11.8 60.9h264.8v34.8H11.8z"/></defs><clipPath id="SVGID_102_"><use xlink:href="#SVGID_101_" overflow="visible"/></clipPath><path clip-path="url(#SVGID_102_)" fill="#272425" d="M260 58h20.1v20.5H260z"/></g></g><g class="st40"><defs><path id="SVGID_103_" d="M26.5 82.2v3.1h-8.6v2.3h7.8v3.1h-7.8v4.6h-5.2V82.2z"/></defs><clipPath id="SVGID_104_"><use xlink:href="#SVGID_103_" overflow="visible"/></clipPath><g clip-path="url(#SVGID_104_)"><defs><path id="SVGID_105_" d="M11.8 60.9h264.8v34.8H11.8z"/></defs><clipPath id="SVGID_106_"><use xlink:href="#SVGID_105_" overflow="visible"/></clipPath><path clip-path="url(#SVGID_106_)" fill="#272425" d="M9 78.5h21.1V99H9z"/></g></g><g class="st40"><defs><path id="SVGID_107_" d="M28.2 82.2h5.2v13.1h-5.2z"/></defs><clipPath id="SVGID_108_"><use xlink:href="#SVGID_107_" overflow="visible"/></clipPath><g clip-path="url(#SVGID_108_)"><defs><path id="SVGID_109_" d="M11.8 60.9h264.8v34.8H11.8z"/></defs><clipPath id="SVGID_110_"><use xlink:href="#SVGID_109_" overflow="visible"/></clipPath><path clip-path="url(#SVGID_110_)" fill="#272425" d="M24.5 78.5h12.6V99H24.5z"/></g></g><g class="st40"><defs><path id="SVGID_111_" d="M41.2 82.2v9.6h7.5v3.5H36V82.2z"/></defs><clipPath id="SVGID_112_"><use xlink:href="#SVGID_111_" overflow="visible"/></clipPath><g clip-path="url(#SVGID_112_)"><defs><path id="SVGID_113_" d="M11.8 60.9h264.8v34.8H11.8z"/></defs><clipPath id="SVGID_114_"><use xlink:href="#SVGID_113_" overflow="visible"/></clipPath><path clip-path="url(#SVGID_114_)" fill="#272425" d="M32.3 78.5h20.1V99H32.3z"/></g></g><g class="st40"><defs><path id="SVGID_115_" d="M57.8 82.2l2.6 6.9 2.5-6.9h7.4v13.1h-4.9v-8.8l-3.2 8.8h-3.7l-3.4-8.8v8.8h-4.8V82.2z"/></defs><clipPath id="SVGID_116_"><use xlink:href="#SVGID_115_" overflow="visible"/></clipPath><g clip-path="url(#SVGID_116_)"><defs><path id="SVGID_117_" d="M11.8 60.9h264.8v34.8H11.8z"/></defs><clipPath id="SVGID_118_"><use xlink:href="#SVGID_117_" overflow="visible"/></clipPath><path clip-path="url(#SVGID_118_)" fill="#272425" d="M46.6 78.5h27.3V99H46.6z"/></g></g><g class="st40"><defs><path id="SVGID_119_" d="M92.4 82.2v3.1h-8.6v2.3h7.8v3.1h-7.8v4.6h-5.2V82.2z"/></defs><clipPath id="SVGID_120_"><use xlink:href="#SVGID_119_" overflow="visible"/></clipPath><g clip-path="url(#SVGID_120_)"><defs><path id="SVGID_121_" d="M11.8 60.9h264.8v34.8H11.8z"/></defs><clipPath id="SVGID_122_"><use xlink:href="#SVGID_121_" overflow="visible"/></clipPath><path clip-path="url(#SVGID_122_)" fill="#272425" d="M74.9 78.5H96V99H74.9z"/></g></g><g class="st40"><defs><path id="SVGID_123_" d="M108.4 82.2v3.1h-8.5v1.6h7.8V90h-7.8v2.1h9.1v3.2H94.7V82.2z"/></defs><clipPath id="SVGID_124_"><use xlink:href="#SVGID_123_" overflow="visible"/></clipPath><g clip-path="url(#SVGID_124_)"><defs><path id="SVGID_125_" d="M11.8 60.9h264.8v34.8H11.8z"/></defs><clipPath id="SVGID_126_"><use xlink:href="#SVGID_125_" overflow="visible"/></clipPath><path clip-path="url(#SVGID_126_)" fill="#272425" d="M91 78.5h21.7V99H91z"/></g></g><g class="st40"><defs><path id="SVGID_127_" d="M121.5 86c-.6-1.1-2-1.4-2.7-1.4-.9 0-1.7 0-2.2.7-.1.2-.1.5 0 .8.2.6 1.4.7 2 .8l4.2.6c1.3.2 3.4.6 4.1 2.3.4.9.3 2.4-.3 3.3-1.6 2.4-5.1 2.6-6.9 2.6H118c-3.9 0-6.4-1.1-7.6-3.1-.2-.3-.3-.6-.4-1.3h5.7c.2.3.3.5.5.7 1 .9 2.7 1 3.5.8.4-.1 1-.2 1.2-.8.1-.2.1-.5 0-.7-.4-.7-1.2-.8-2.3-.9l-3-.3c-1.3-.1-4.1-.6-4.9-2.4-.4-1-.3-2.6.3-3.5 1.4-2.2 4.8-2.2 6.1-2.2h1.6c4.6 0 7.3 1.7 8 4.1h-5.2z"/></defs><clipPath id="SVGID_128_"><use xlink:href="#SVGID_127_" overflow="visible"/></clipPath><g clip-path="url(#SVGID_128_)"><defs><path id="SVGID_129_" d="M11.8 60.9h264.8v34.8H11.8z"/></defs><clipPath id="SVGID_130_"><use xlink:href="#SVGID_129_" overflow="visible"/></clipPath><path clip-path="url(#SVGID_130_)" fill="#272425" d="M106.2 78.1h24.6v21.2h-24.6z"/></g></g><g class="st40"><defs><path id="SVGID_131_" d="M142.6 86H138v9.3h-5.2V86h-4.7v-3.8h14.5z"/></defs><clipPath id="SVGID_132_"><use xlink:href="#SVGID_131_" overflow="visible"/></clipPath><g clip-path="url(#SVGID_132_)"><defs><path id="SVGID_133_" d="M11.8 60.9h264.8v34.8H11.8z"/></defs><clipPath id="SVGID_134_"><use xlink:href="#SVGID_133_" overflow="visible"/></clipPath><path clip-path="url(#SVGID_134_)" fill="#272425" d="M124.4 78.5h21.9V99h-21.9z"/></g></g><g class="st40"><defs><path id="SVGID_135_" d="M143.9 82.2h5.2v13.1h-5.2z"/></defs><clipPath id="SVGID_136_"><use xlink:href="#SVGID_135_" overflow="visible"/></clipPath><g clip-path="url(#SVGID_136_)"><defs><path id="SVGID_137_" d="M11.8 60.9h264.8v34.8H11.8z"/></defs><clipPath id="SVGID_138_"><use xlink:href="#SVGID_137_" overflow="visible"/></clipPath><path clip-path="url(#SVGID_138_)" fill="#272425" d="M140.2 78.5h12.6V99h-12.6z"/></g></g><g class="st40"><defs><path id="SVGID_139_" d="M155.8 95.3l-5.7-13.1h5l3.5 8.4 3.6-8.4h5l-5.7 13.1z"/></defs><clipPath id="SVGID_140_"><use xlink:href="#SVGID_139_" overflow="visible"/></clipPath><g clip-path="url(#SVGID_140_)"><defs><path id="SVGID_141_" d="M11.8 60.9h264.8v34.8H11.8z"/></defs><clipPath id="SVGID_142_"><use xlink:href="#SVGID_141_" overflow="visible"/></clipPath><path clip-path="url(#SVGID_142_)" fill="#272425" d="M146.4 78.5h24.4V99h-24.4z"/></g></g><g class="st40"><defs><path id="SVGID_143_" d="M177.7 82.2l5.3 13.1h-4.9l-1-2.4h-6.3l-1 2.4H165l5.3-13.1h7.4zM176 90l-2-4.9-2 4.9h4z"/></defs><clipPath id="SVGID_144_"><use xlink:href="#SVGID_143_" overflow="visible"/></clipPath><g clip-path="url(#SVGID_144_)"><defs><path id="SVGID_145_" d="M11.8 60.9h264.8v34.8H11.8z"/></defs><clipPath id="SVGID_146_"><use xlink:href="#SVGID_145_" overflow="visible"/></clipPath><path clip-path="url(#SVGID_146_)" fill="#272425" d="M161.3 78.5h25.4V99h-25.4z"/></g></g><g class="st40"><defs><path id="SVGID_147_" d="M189.7 82.2v9.6h7.4v3.5h-12.6V82.2z"/></defs><clipPath id="SVGID_148_"><use xlink:href="#SVGID_147_" overflow="visible"/></clipPath><g clip-path="url(#SVGID_148_)"><defs><path id="SVGID_149_" d="M11.8 60.9h264.8v34.8H11.8z"/></defs><clipPath id="SVGID_150_"><use xlink:href="#SVGID_149_" overflow="visible"/></clipPath><path clip-path="url(#SVGID_150_)" fill="#272425" d="M180.8 78.5h20.1V99h-20.1z"/></g></g></g></svg>